<svg width="41" height="40" viewBox="0 0 41 40" fill="none" xmlns="http://www.w3.org/2000/svg">
<rect x="0.200195" width="40" height="40" rx="20" fill="#FFF9E6"/>
<g clip-path="url(#clip0_25_5971)">
<path d="M13.3244 10.1563C12.7385 10.2969 12.2424 10.7305 12.0354 11.2734C11.9182 11.5898 11.8674 12.1016 11.9143 12.5195C11.9455 12.7969 11.9846 12.9336 12.1018 13.1719L12.2502 13.4688L12.0159 13.5352C11.2619 13.7422 10.6369 14.332 10.3635 15.0859C10.2659 15.3555 10.258 15.4141 10.2463 16.2656C10.2307 17.25 10.2385 17.2969 10.4534 17.4023C10.5666 17.4531 10.9768 17.4609 13.7619 17.4609C16.7073 17.4609 16.9494 17.457 17.0744 17.3906C17.301 17.2773 17.3127 17.2266 17.2971 16.2891C17.2854 15.5039 17.2776 15.4297 17.1799 15.1328C16.9299 14.3789 16.3166 13.7734 15.5705 13.5469C15.4221 13.5039 15.2932 13.4609 15.2893 13.457C15.2815 13.4531 15.3284 13.3555 15.3948 13.2383C15.4573 13.1211 15.5354 12.9219 15.5705 12.793C15.6409 12.5195 15.6487 11.8906 15.5862 11.5938C15.4338 10.8867 14.9338 10.3594 14.2424 10.1758C13.9963 10.1133 13.551 10.1055 13.3244 10.1563ZM14.1487 10.957C14.3909 11.0391 14.5744 11.2031 14.7112 11.4492C14.8088 11.6289 14.8244 11.707 14.8401 12.0508C14.8635 12.5508 14.7971 12.8047 14.5744 13.0547C14.3557 13.3047 14.1174 13.4102 13.7737 13.4141C13.2932 13.418 12.9026 13.1563 12.758 12.7383C12.6643 12.4648 12.6799 11.75 12.7815 11.5234C12.9104 11.2383 13.1526 11.0234 13.4416 10.9336C13.6096 10.8828 13.9651 10.8945 14.1487 10.957ZM15.5237 14.3633C15.6682 14.4336 15.8791 14.5781 15.9924 14.6836C16.3909 15.0625 16.5276 15.4492 16.5276 16.1992V16.6797H16.1409H15.7541L15.7385 16.168L15.7268 15.6563L15.5979 15.543C15.4494 15.4102 15.3088 15.3984 15.133 15.5078C14.9768 15.6016 14.969 15.6445 14.9534 16.2109L14.9455 16.6602L13.7659 16.6719L12.5823 16.6797V16.2148C12.5823 15.6992 12.5471 15.5703 12.383 15.4844C12.1799 15.3789 11.9338 15.4531 11.8479 15.6445C11.8205 15.7031 11.801 15.9336 11.801 16.2109V16.6797H11.4065H11.0119L11.0276 16.0625C11.0393 15.4609 11.0432 15.4414 11.1643 15.1914C11.3244 14.8672 11.5393 14.625 11.8049 14.4648C12.1955 14.2305 12.2932 14.2227 13.8518 14.2305L15.258 14.2383L15.5237 14.3633Z" fill="#A48000"/>
<path d="M25.9814 10.1756C24.3173 10.453 23.2118 11.6561 23.0165 13.3944C22.8603 14.8163 23.6572 16.2577 24.9736 16.9178C25.915 17.3905 27.0595 17.4295 28.0048 17.0194C29.0556 16.5663 29.8251 15.6444 30.1103 14.5077C30.2197 14.0741 30.2001 13.2889 30.0673 12.7928C29.8915 12.1249 29.6415 11.6756 29.1884 11.1952C28.747 10.7342 28.1376 10.3905 27.5009 10.2342C27.0673 10.1288 26.4072 10.1014 25.9814 10.1756ZM27.4853 11.0311C27.8915 11.1717 28.2861 11.4178 28.5907 11.7264C28.9618 12.1014 29.1454 12.41 29.3056 12.9295C29.4189 13.2967 29.4306 13.9725 29.329 14.3866C29.1845 14.9608 28.829 15.5428 28.4111 15.8788C28.1337 16.1014 27.6493 16.3358 27.29 16.4295C26.8876 16.5272 26.2431 16.5194 25.8447 16.41C25.3134 16.2616 24.9892 16.078 24.6103 15.703C24.3212 15.4178 24.247 15.3163 24.0947 14.9999C23.6689 14.1053 23.6728 13.2225 24.1181 12.367C24.3564 11.8983 24.8251 11.4452 25.3173 11.1991C25.8368 10.9452 26.0517 10.8983 26.665 10.9139C27.0986 10.9217 27.2197 10.9413 27.4853 11.0311Z" fill="#A48000"/>
<path d="M26.9033 13.2419L26.1572 13.9801L25.8408 13.6715C25.5439 13.3825 25.5127 13.359 25.3604 13.359C25.1338 13.359 24.9658 13.5192 24.9658 13.734C24.9658 13.8747 25.001 13.9176 25.4854 14.402C26.2158 15.1325 26.0635 15.1676 27.2588 13.9723C28.165 13.0661 28.208 13.0192 28.208 12.8786C28.208 12.6598 28.04 12.4997 27.8135 12.4997C27.6494 12.4997 27.6338 12.5114 26.9033 13.2419Z" fill="#A48000"/>
<path d="M20.3714 12.3047C20.2425 12.3555 20.1604 12.5001 20.1604 12.668C20.1604 12.8008 20.1917 12.8516 20.4026 13.0704L20.6409 13.3204H19.7034C19.1878 13.3204 18.7112 13.3321 18.6409 13.3438C18.3362 13.4063 18.2151 13.7696 18.43 13.9922L18.5354 14.1016H19.5823C20.1565 14.1016 20.6292 14.1133 20.6292 14.129C20.6292 14.1407 20.5237 14.2618 20.3948 14.3985C20.1839 14.6172 20.1604 14.6602 20.1604 14.8047C20.1604 15.0743 20.4221 15.2579 20.6604 15.1602C20.7229 15.1329 21.0393 14.8438 21.3675 14.5157C21.9104 13.9727 21.9651 13.9063 21.9846 13.754L22.0081 13.586L21.3479 12.9258C20.6487 12.2305 20.6136 12.2071 20.3714 12.3047Z" fill="#A48000"/>
<path d="M13.6521 18.3437C13.5857 18.3749 13.5115 18.4452 13.4841 18.4999C13.4568 18.5624 13.4412 18.8945 13.4412 19.4335C13.4412 19.8945 13.4255 20.2734 13.4099 20.2734C13.3943 20.2734 13.2771 20.1679 13.1482 20.039C12.9412 19.8281 12.8982 19.8046 12.7576 19.8046C12.6716 19.8046 12.5623 19.832 12.5154 19.8632C12.3943 19.9452 12.3357 20.1562 12.3865 20.2968C12.4373 20.4296 13.4841 21.4999 13.6521 21.5898C13.8748 21.707 13.9646 21.6484 14.6443 20.9648C15.238 20.3671 15.2771 20.3163 15.2771 20.1796C15.2771 19.9687 15.1091 19.8046 14.8865 19.8046C14.742 19.8046 14.699 19.8281 14.4724 20.0468L14.2224 20.2851V19.457C14.2224 18.5429 14.2029 18.4492 13.988 18.3398C13.8474 18.2656 13.8045 18.2656 13.6521 18.3437Z" fill="#A48000"/>
<path d="M26.3525 18.3168C26.3096 18.3363 26.2393 18.391 26.1963 18.4379C26.1221 18.516 26.1182 18.5902 26.1064 19.4027L26.0947 20.2816L25.8447 20.0434C25.6182 19.8246 25.583 19.8051 25.4229 19.8051C25.2744 19.8051 25.2314 19.8246 25.1455 19.9262C25.0713 20.0121 25.0439 20.0902 25.0439 20.2035C25.0439 20.3559 25.0674 20.3871 25.6611 20.9809C26.04 21.3637 26.3135 21.6059 26.3838 21.6215C26.5947 21.6762 26.6924 21.6098 27.3213 20.9809C27.9307 20.3676 27.9346 20.3637 27.9346 20.1879C27.9346 19.9457 27.7979 19.8051 27.5596 19.8051C27.4072 19.8051 27.3682 19.8285 27.1338 20.0434L26.8799 20.2816V19.4184V18.5551L26.7744 18.4379C26.6572 18.3129 26.4814 18.2621 26.3525 18.3168Z" fill="#A48000"/>
<path d="M12.9534 22.5352C12.6956 22.6523 12.5198 22.8789 12.4065 23.2617C12.2893 23.6367 12.2932 23.6367 11.9182 23.5352C11.5003 23.4219 11.1721 23.4883 10.93 23.7344C10.8089 23.8555 10.6331 24.1406 10.3636 24.6484C10.2034 24.9531 10.1917 24.9961 10.2112 25.1992C10.2346 25.4766 10.3128 25.6289 10.5745 25.9062C10.6917 26.0273 10.7854 26.1484 10.7854 26.1719C10.7854 26.1953 10.6917 26.3164 10.5745 26.4375C10.3128 26.7148 10.2346 26.8672 10.2112 27.1445C10.1917 27.3477 10.2034 27.3906 10.3636 27.6953C10.6331 28.2031 10.8089 28.4883 10.93 28.6094C11.1721 28.8555 11.5003 28.9219 11.9182 28.8086C12.2932 28.707 12.2893 28.707 12.4065 29.082C12.4807 29.3281 12.5471 29.4609 12.6526 29.5781C12.8948 29.8477 13.012 29.8828 13.7542 29.8828C14.3206 29.8828 14.4221 29.8711 14.5745 29.8008C14.8909 29.6602 15.0159 29.4883 15.1409 29.0312C15.18 28.8945 15.2346 28.7734 15.2659 28.7617C15.2932 28.75 15.43 28.7695 15.5706 28.8047C15.9143 28.8906 16.1214 28.8828 16.3518 28.7734C16.594 28.6602 16.6604 28.5859 16.9143 28.1523C17.2737 27.5391 17.3089 27.4492 17.3089 27.1797C17.3089 26.8906 17.1878 26.6445 16.9221 26.3867C16.8323 26.3047 16.762 26.207 16.762 26.1719C16.762 26.1367 16.8323 26.0391 16.9221 25.957C17.1878 25.6992 17.3089 25.4531 17.3089 25.1641C17.3089 24.8945 17.2854 24.8359 16.9261 24.2188C16.6565 23.7539 16.594 23.6836 16.3518 23.5703C16.1175 23.4609 15.9768 23.4531 15.6057 23.5391C15.4534 23.5781 15.3011 23.5977 15.2698 23.582C15.2386 23.5703 15.18 23.4492 15.1409 23.3125C15.0159 22.8555 14.8909 22.6836 14.5745 22.543C14.4221 22.4727 14.3206 22.4609 13.7542 22.4609C13.2151 22.4609 13.0862 22.4727 12.9534 22.5352ZM14.3206 23.2891C14.3284 23.3164 14.3714 23.4688 14.4182 23.625C14.5979 24.2461 15.055 24.4922 15.7073 24.3164C15.8245 24.2852 15.9495 24.2578 15.9846 24.2578C16.0511 24.2578 16.5276 25.0391 16.5276 25.1484C16.5276 25.1758 16.4339 25.3125 16.3167 25.4414C16.0354 25.7656 15.9807 25.8867 15.9807 26.1719C15.9807 26.457 16.0511 26.6133 16.3284 26.9219C16.4378 27.043 16.5276 27.168 16.5276 27.1992C16.5276 27.3086 16.0511 28.0859 15.9846 28.0859C15.9495 28.0859 15.8245 28.0586 15.7073 28.0273C15.055 27.8516 14.5979 28.0977 14.4182 28.7188C14.3714 28.875 14.3284 29.0273 14.3206 29.0547C14.305 29.0938 14.1761 29.1016 13.7659 29.0938L13.2268 29.082L13.1214 28.7578C12.9925 28.3555 12.8636 28.1836 12.6057 28.0625C12.3714 27.9531 12.1643 27.9453 11.8206 28.0312C11.68 28.0664 11.5432 28.0859 11.5159 28.0742C11.4534 28.0508 10.9807 27.25 10.9807 27.1719C10.9807 27.1484 11.0706 27.0391 11.18 26.9336C11.4221 26.6992 11.5667 26.4141 11.5667 26.1719C11.5667 25.9297 11.4221 25.6445 11.18 25.4102C11.0706 25.3047 10.9807 25.1953 10.9807 25.1719C10.9807 25.1016 11.4573 24.293 11.512 24.2695C11.5354 24.2617 11.6643 24.2812 11.7932 24.3125C12.4768 24.4922 12.9104 24.2734 13.0979 23.6523C13.2307 23.207 13.1761 23.2422 13.7776 23.2422C14.1643 23.2422 14.3089 23.2539 14.3206 23.2891Z" fill="#A48000"/>
<path d="M13.4034 24.8242C12.548 25.0664 12.1378 25.9961 12.5284 26.8164C12.9542 27.7226 14.3331 27.8164 14.9073 26.9765C15.0753 26.7265 15.1769 26.3476 15.1495 26.0507C15.0753 25.2031 14.212 24.5976 13.4034 24.8242ZM14.0128 25.6211C14.423 25.8086 14.505 26.3007 14.1808 26.6093C13.7862 26.9843 13.1612 26.7187 13.1612 26.1757C13.1612 25.8789 13.3175 25.6679 13.5987 25.582C13.755 25.5351 13.8409 25.5429 14.0128 25.6211Z" fill="#A48000"/>
<path d="M23.715 22.7617C23.297 22.9062 22.9884 23.25 22.8751 23.6992C22.8204 23.9062 22.8165 24.2539 22.8243 26.2773L22.8361 28.6133L22.9259 28.8398C23.0353 29.1133 23.3087 29.4023 23.5783 29.5312L23.7736 29.6289L25.7892 29.6406L27.8048 29.6523L27.9064 29.5469C28.1095 29.3438 28.0197 28.9844 27.7423 28.9062C27.6564 28.8828 26.8908 28.8672 25.7775 28.8672H23.9572L23.8283 28.7617C23.5939 28.5625 23.5978 28.6133 23.5978 26.1719C23.5978 23.7305 23.5939 23.7812 23.8283 23.582L23.9572 23.4766H26.4962C28.9767 23.4766 29.0392 23.4766 29.1642 23.5547C29.4181 23.7109 29.4181 23.7148 29.4181 25.5859V27.2734L29.5314 27.3867C29.6837 27.5352 29.9103 27.543 30.0704 27.4062L30.1798 27.3125V25.5V23.6914L30.0509 23.4297C29.8986 23.1172 29.6525 22.8867 29.3556 22.7734C29.1486 22.6992 29.0626 22.6953 26.5158 22.6953C24.2306 22.6992 23.8673 22.707 23.715 22.7617Z" fill="#A48000"/>
<path d="M20.2656 24.8359C20.1875 24.918 20.1602 24.9844 20.1602 25.1094C20.1602 25.2539 20.1875 25.2969 20.3984 25.5234L20.6328 25.7773L19.5742 25.7891L18.5117 25.8008L18.418 25.9102C18.2891 26.0586 18.2891 26.2852 18.418 26.4336L18.5117 26.543L19.5742 26.5547L20.6328 26.5664L20.3984 26.8203C20.1875 27.0469 20.1602 27.0898 20.1602 27.2344C20.1602 27.4727 20.3086 27.6172 20.543 27.6172C20.7188 27.6172 20.7227 27.6133 21.3359 27C21.9648 26.375 22.0312 26.2773 21.9805 26.0625C21.9609 25.9961 21.7227 25.7266 21.3359 25.3398C20.7227 24.7305 20.7188 24.7266 20.543 24.7266C20.4062 24.7266 20.3477 24.75 20.2656 24.8359Z" fill="#A48000"/>
<path d="M24.8598 24.8359C24.6684 24.9844 24.6566 25.2656 24.8324 25.4336L24.934 25.5273H26.4574H27.9809L28.0941 25.3984C28.2504 25.2266 28.2504 25.0352 28.0941 24.8789L27.9809 24.7656H26.4613C25.0863 24.7656 24.9379 24.7734 24.8598 24.8359Z" fill="#A48000"/>
<path d="M24.8598 26.8164C24.7309 26.9062 24.6684 27.1484 24.7348 27.2891C24.8403 27.5039 24.9809 27.5391 25.7973 27.5391C26.5825 27.5391 26.7544 27.5078 26.8403 27.3438C26.9458 27.1484 26.8755 26.8828 26.6958 26.8008C26.6372 26.7734 26.2973 26.7578 25.7739 26.7578C25.0903 26.7578 24.9302 26.7695 24.8598 26.8164Z" fill="#A48000"/>
<path d="M29.2578 28.7463C28.9648 29.0431 29.2734 29.5314 29.6562 29.3752C29.8125 29.3088 29.8945 29.1799 29.8945 28.9963C29.8945 28.883 29.8672 28.8283 29.7734 28.7424C29.6055 28.59 29.414 28.5939 29.2578 28.7463Z" fill="#A48000"/>
</g>
<defs>
<clipPath id="clip0_25_5971">
<rect width="20" height="20" fill="white" transform="translate(10.2002 10)"/>
</clipPath>
</defs>
</svg>
