<svg width="41" height="40" viewBox="0 0 41 40" fill="none" xmlns="http://www.w3.org/2000/svg">
<rect x="0.799805" width="40" height="40" rx="20" fill="#EAEFFB"/>
<g clip-path="url(#clip0_25_5925)">
<path d="M12.4092 10.0781C12.0068 10.1836 11.7607 10.3281 11.4443 10.6445C11.124 10.9648 10.9834 11.207 10.8779 11.625C10.8037 11.9062 10.7998 12.0586 10.7998 13.8828C10.7998 16.0664 10.8076 16.125 11.0615 16.6172C11.3232 17.1172 11.8037 17.5039 12.3818 17.6836C12.6045 17.75 12.8584 17.7539 17.1162 17.7539H21.6162L21.7256 17.6719C21.9287 17.5195 22.0186 17.3477 21.999 17.1367C21.9834 16.9766 21.9053 16.8359 21.3701 16.0352L20.7607 15.1172V13.5469C20.7607 11.8008 20.7412 11.6367 20.5186 11.1797C20.3623 10.8633 19.9756 10.457 19.6631 10.2812C19.5381 10.2109 19.3037 10.1211 19.1357 10.0781C18.8467 10.0039 18.7021 10 15.7646 10.0039C12.8701 10.0039 12.6787 10.0078 12.4092 10.0781ZM17.9092 12.2734C18.3115 12.4766 18.3545 12.9922 17.9951 13.2617C17.8936 13.3359 17.8193 13.3398 15.8584 13.3516C14.7412 13.3555 13.7881 13.3516 13.7412 13.3398C13.5889 13.3047 13.3818 13.0898 13.3389 12.9258C13.2607 12.6367 13.4326 12.3125 13.7139 12.2266C13.7764 12.2109 14.7061 12.1914 15.7803 12.1914C17.7334 12.1875 17.7373 12.1875 17.9092 12.2734ZM16.0732 14.4805C16.2607 14.5977 16.3467 14.7578 16.3467 14.9961C16.3467 15.1758 16.3311 15.2148 16.1943 15.3633L16.0381 15.5273L14.8818 15.5391C13.749 15.5508 13.7217 15.5469 13.585 15.4648C13.4443 15.3789 13.2998 15.1328 13.2998 14.9805C13.2998 14.8477 13.4443 14.5781 13.5498 14.5078C13.7295 14.3945 13.8818 14.3789 14.9209 14.3867C15.8896 14.3945 15.9443 14.3984 16.0732 14.4805Z" fill="#153070"/>
<path d="M25.6318 11.3125C24.5576 11.5508 23.7959 12.4297 23.7021 13.5312C23.6748 13.875 23.7646 14.3633 23.9209 14.7031C24.2334 15.3828 24.9014 15.9219 25.624 16.0742C25.8037 16.1133 25.835 16.1289 25.7607 16.1445C25.7061 16.1562 25.5303 16.1914 25.3701 16.2227C23.9912 16.4961 22.8506 17.6055 22.5186 18.9922C22.4756 19.1719 22.4404 19.3398 22.4404 19.3633C22.4404 19.4023 23.2061 19.4141 26.1357 19.4141H29.8271L29.7998 19.2266C29.6396 18.1055 28.7881 16.9883 27.71 16.4883C27.4443 16.3633 26.8232 16.1719 26.6826 16.1719C26.6396 16.1719 26.5576 16.1602 26.5029 16.1445C26.4287 16.125 26.46 16.1094 26.6592 16.0703C27.0654 15.9883 27.5303 15.7305 27.8506 15.4102C28.6357 14.625 28.792 13.4141 28.2334 12.4648C28.0498 12.1523 27.6826 11.7812 27.3936 11.6094C26.8779 11.3047 26.1865 11.1875 25.6318 11.3125Z" fill="#153070"/>
<path d="M14.785 18.8477C13.7068 19.0898 12.8709 19.8828 12.5896 20.9297C12.4764 21.3594 12.4764 21.9844 12.5936 22.4023C12.7889 23.1055 13.2967 23.7773 13.9061 24.1328C14.1912 24.3008 14.7186 24.4922 14.8982 24.4922C14.9529 24.4922 15.0271 24.5117 15.0584 24.5312C15.1014 24.5586 15.0701 24.5703 14.949 24.5703C14.574 24.5703 13.8201 24.7812 13.3592 25.0117C12.492 25.4453 11.6795 26.2656 11.2732 27.1289C10.9607 27.7812 10.7811 28.582 10.8084 29.2031C10.824 29.5859 10.9334 29.7891 11.199 29.918C11.3709 30 11.3787 30 15.3201 30C17.492 30 19.324 29.9883 19.3943 29.9727C19.5818 29.9375 19.8436 29.668 19.9021 29.4531C19.9646 29.2305 19.9021 28.4258 19.7889 27.9805C19.3514 26.2812 17.9842 24.9844 16.2615 24.6328C16.0975 24.5977 15.8865 24.5703 15.7967 24.5703C15.574 24.5703 15.6209 24.5352 15.9451 24.4727C16.9529 24.2617 17.7732 23.5273 18.0936 22.5508C18.2381 22.1094 18.2615 21.4297 18.1482 20.9727C17.8982 19.9766 17.1834 19.2266 16.1717 18.9062C15.8162 18.793 15.1482 18.7656 14.785 18.8477Z" fill="#153070"/>
<path d="M19.292 20.691C19.4404 21.1988 19.4248 22.1949 19.2607 22.7535C19.1318 23.1832 18.8662 23.7301 18.6357 24.0387L18.4639 24.2652L18.7803 24.5035C19.6592 25.148 20.4365 26.2066 20.7725 27.2066L20.8662 27.4801L25.2451 27.4918L29.6201 27.4996L29.6357 27.9254C29.6475 28.3824 29.6826 28.4762 29.9053 28.6402C30.1553 28.8277 30.5537 28.7301 30.7139 28.441L30.7998 28.2887V24.691C30.7998 21.1598 30.7998 21.0855 30.7217 20.9371C30.6709 20.8355 30.5889 20.7535 30.4873 20.7027C30.335 20.6246 30.2686 20.6246 24.8037 20.6246C19.5537 20.6246 19.2725 20.6285 19.292 20.691Z" fill="#153070"/>
</g>
<defs>
<clipPath id="clip0_25_5925">
<rect width="20" height="20" fill="white" transform="translate(10.7998 10)"/>
</clipPath>
</defs>
</svg>
