<svg width="41" height="40" viewBox="0 0 41 40" fill="none" xmlns="http://www.w3.org/2000/svg">
<rect x="0.400391" width="40" height="40" rx="20" fill="#D6F5F3"/>
<path d="M14.374 10.5108C14.0975 10.6092 13.8584 10.8249 13.7225 11.1014L13.6006 11.3452V13.703V16.0608H19.8818H26.1678L26.1537 13.703L26.1396 11.3499L26.0131 11.1108C25.8631 10.8202 25.6146 10.6045 25.324 10.5061C25.0193 10.403 14.6646 10.4077 14.374 10.5108ZM20.3506 12.3202C20.6975 12.5592 20.7021 12.5733 20.7021 13.7405C20.7021 14.7249 20.6975 14.7952 20.6037 14.917C20.3881 15.2077 20.299 15.2405 19.7178 15.2405C19.1365 15.2405 19.0475 15.2077 18.8318 14.917C18.7381 14.7952 18.7334 14.7249 18.7334 13.7405C18.7334 12.5733 18.7381 12.5592 19.085 12.3202C19.2209 12.2311 19.3006 12.217 19.7178 12.217C20.135 12.217 20.2146 12.2311 20.3506 12.3202ZM23.1068 12.292C23.3131 12.3764 23.5193 12.5639 23.6178 12.7514C23.7209 12.9483 23.7209 13.328 23.6178 13.5577C23.5334 13.7452 23.5334 13.7592 23.6131 13.9092C23.7162 14.1108 23.7209 14.5374 23.6178 14.7249C23.524 14.9124 23.2662 15.1514 23.1021 15.2124C23.0271 15.2405 22.7318 15.2639 22.4365 15.2639C21.635 15.2639 21.6912 15.367 21.6725 13.853C21.6631 13.1733 21.6725 12.5686 21.6865 12.5077C21.7006 12.4514 21.7521 12.3624 21.8037 12.3108C21.8881 12.2264 21.9631 12.217 22.4131 12.217C22.774 12.217 22.985 12.2405 23.1068 12.292ZM17.7631 13.4452C17.749 14.467 17.7443 14.5514 17.6459 14.7295C17.3553 15.2733 16.6896 15.4608 16.16 15.1514C15.8834 14.9874 15.7193 14.7436 15.6537 14.3874C15.5787 13.9702 15.5928 13.9514 16.0146 13.9514H16.3662V14.092C16.3662 14.4108 16.5725 14.603 16.8115 14.5139C17.0037 14.4389 17.0225 14.3358 17.0225 13.3233V12.3577H17.4021H17.7771L17.7631 13.4452Z" fill="#24948C"/>
<path d="M19.46 13.7405V14.5139H19.7178H19.9756V13.7405V12.967H19.7178H19.46V13.7405Z" fill="#24948C"/>
<path d="M22.4131 13.1545V13.342H22.6475C22.9146 13.342 23.0225 13.2342 22.9287 13.0608C22.8912 12.9858 22.8303 12.967 22.6475 12.967H22.4131V13.1545Z" fill="#24948C"/>
<path d="M22.4131 14.303V14.5139H22.6146C22.8396 14.5139 22.9287 14.453 22.9287 14.2936C22.9287 14.167 22.8021 14.092 22.5818 14.092C22.4131 14.092 22.4131 14.092 22.4131 14.303Z" fill="#24948C"/>
<path d="M12.5134 12.2873C12.2931 12.4045 12.1384 12.5732 11.979 12.8732C11.8947 13.0326 11.89 13.2904 11.89 19.9279C11.89 27.6154 11.8665 27.0435 12.2181 27.756C12.6493 28.6373 13.4978 29.2935 14.454 29.4857C14.9884 29.5935 24.8556 29.5982 25.315 29.4904C25.7087 29.3967 26.1165 29.1764 26.4353 28.881L26.6931 28.6467L21.4712 28.6232C16.7181 28.5998 16.2212 28.5904 15.9447 28.5154C15.115 28.2951 14.5103 27.9529 13.9572 27.3857C13.5493 26.9685 13.2353 26.4482 13.029 25.8576L12.8743 25.4123L12.8603 18.7889C12.8509 13.581 12.8368 12.1701 12.79 12.1701C12.7618 12.1748 12.6353 12.2264 12.5134 12.2873Z" fill="#24948C"/>
<path d="M13.6107 21.0388L13.6248 25.2716L13.7701 25.6747C14.1311 26.6872 14.8951 27.4138 15.9451 27.7419L16.2967 27.8497H21.5936H26.8904L27.2232 27.7279C28.6576 27.2029 29.2998 25.6888 28.6717 24.32C28.4701 23.8888 27.9686 23.3685 27.5607 23.1716C27.2232 23.0122 26.7779 22.9044 26.4357 22.9044H26.1639V19.8575V16.8107H19.8826H13.5967L13.6107 21.0388ZM17.2107 17.6544V18.0294H16.4139H15.617V17.6544V17.2794H16.4139H17.2107V17.6544ZM24.1014 17.6544V18.0294H20.9842H17.867V17.6544V17.2794H20.9842H24.1014V17.6544ZM17.2107 19.0138V19.3888H16.4139H15.617V19.0138V18.6388H16.4139H17.2107V19.0138ZM24.1014 19.0138V19.3888H20.9842H17.867V19.0138V18.6388H20.9842H24.1014V19.0138ZM17.2107 20.42V20.795H16.4139H15.617V20.42V20.045H16.4139H17.2107V20.42ZM24.1014 20.42V20.795H20.9842H17.867V20.42V20.045H20.9842H24.1014V20.42ZM17.2107 21.8263V22.2013H16.4139H15.617V21.8263V21.4513H16.4139H17.2107V21.8263ZM24.1014 21.8263V22.2013H20.9842H17.867V21.8263V21.4513H20.9842H24.1014V21.8263ZM27.1154 23.7857C27.4717 23.931 27.8607 24.3107 28.0154 24.6622C28.2357 25.1544 28.2123 25.7216 27.9545 26.1997C27.7904 26.5091 27.3967 26.856 27.0639 26.9919L26.7967 27.0997L22.6857 27.1138C20.4217 27.1185 18.5701 27.1138 18.5701 27.095C18.5701 27.081 18.6451 26.9779 18.7389 26.8747C18.9592 26.6169 19.1561 26.1857 19.2311 25.82C19.367 25.1216 19.1373 24.245 18.6967 23.7575L18.5982 23.6544L22.7232 23.6638L26.8436 23.6779L27.1154 23.7857Z" fill="#24948C"/>
<path d="M19.934 24.5544C20.0512 24.9575 20.0371 25.7685 19.9012 26.2654L19.873 26.3732H23.1824C25.4465 26.3732 26.5621 26.3544 26.7027 26.3216C26.8152 26.2935 26.9934 26.1997 27.0965 26.1107C27.598 25.6794 27.5137 24.8263 26.9371 24.5263C26.7543 24.4279 26.6934 24.4279 23.3184 24.4138L19.8871 24.4044L19.934 24.5544Z" fill="#24948C"/>
</svg>
