<svg width="41" height="40" viewBox="0 0 41 40" fill="none" xmlns="http://www.w3.org/2000/svg">
<rect x="0.599609" width="40" height="40" rx="20" fill="#F3E7FD"/>
<path d="M24.5665 11.6163C24.2344 11.7687 24.1172 12.0071 24.1172 12.5189V12.8706H24.9573H25.7974V12.5268C25.7974 11.9993 25.6332 11.7179 25.2542 11.589C25.0589 11.5226 24.7463 11.5343 24.5665 11.6163Z" fill="#972CF1"/>
<path d="M24.1172 17.5008V21.4668H24.9573H25.7974V17.5008V13.5348H24.9573H24.1172V17.5008Z" fill="#972CF1"/>
<path d="M12.3408 14.3783C12.2861 14.433 12.2783 15.0699 12.2783 20.802C12.2783 26.5341 12.2861 27.171 12.3408 27.2257C12.3955 27.2804 12.7785 27.2882 15.9669 27.2882C19.9172 27.2882 19.7648 27.2804 20.1126 27.5422L20.2884 27.679V21.4506V15.2223L20.0501 14.8589C19.9172 14.6557 19.7766 14.4525 19.7297 14.4017L19.6515 14.3158H16.0255C12.7824 14.3158 12.3955 14.3236 12.3408 14.3783ZM19.1826 16.9103C19.2608 17.004 19.2764 17.0509 19.2569 17.1642C19.21 17.4573 19.4014 17.4417 16.2638 17.4417H13.4544L13.3763 17.3401C13.2356 17.1603 13.2981 16.8985 13.5052 16.8165C13.5482 16.7969 14.8259 16.7852 16.3342 16.7891L19.085 16.7969L19.1826 16.9103ZM19.1514 18.9929C19.1983 19.032 19.2452 19.1296 19.2608 19.2078C19.2803 19.3328 19.2647 19.368 19.1631 19.4735L19.0459 19.5907H16.3068C14.3844 19.5907 13.5443 19.579 13.4779 19.5477C13.2825 19.4579 13.2356 19.1765 13.3919 19.0241L13.4857 18.9265H16.2756C18.8779 18.9265 19.0732 18.9304 19.1514 18.9929ZM19.1592 21.1497C19.2217 21.2123 19.2725 21.3021 19.2725 21.349C19.2725 21.4623 19.1709 21.646 19.0967 21.6772C19.0615 21.689 17.7838 21.7007 16.2599 21.7007H13.4857L13.3919 21.603C13.2434 21.4545 13.2825 21.1693 13.4662 21.0833C13.5209 21.056 14.4899 21.0403 16.2951 21.0403L19.0459 21.0364L19.1592 21.1497ZM19.1787 23.2675C19.2842 23.3848 19.2764 23.6309 19.1631 23.7403L19.0732 23.8302H16.2795H13.4818L13.388 23.7208C13.2747 23.5879 13.2669 23.4238 13.3763 23.2871L13.4544 23.1855H16.2795C19.0889 23.1855 19.1045 23.1855 19.1787 23.2675ZM19.1475 25.3736C19.3194 25.5338 19.2881 25.8269 19.0928 25.9167C19.0224 25.948 18.2058 25.9597 16.2404 25.9597H13.4857L13.3919 25.862C13.2591 25.7331 13.2591 25.5221 13.3919 25.3931L13.4857 25.2955H16.2756C19.0224 25.2955 19.0654 25.2955 19.1475 25.3736Z" fill="#972CF1"/>
<path d="M21.4943 14.4017C21.4513 14.4525 21.3106 14.6557 21.1817 14.855L20.9512 15.2184V21.4545V27.6946L21.0606 27.5891C21.1192 27.5344 21.2559 27.4484 21.3614 27.3976L21.5568 27.3078L25.1907 27.296L28.8245 27.2882L28.8948 27.2062C28.9574 27.128 28.9613 26.7646 28.9613 20.8059C28.9613 15.1519 28.9535 14.4799 28.8988 14.4017C28.8401 14.3158 28.8362 14.3158 27.6484 14.3158H26.4606V18.0903V21.8687L25.8471 23.0409C25.5111 23.6856 25.1985 24.2444 25.1555 24.2874C25.0578 24.3772 24.8507 24.3772 24.7491 24.2874C24.7061 24.2522 24.3936 23.6973 24.0614 23.0604L23.4519 21.9V18.1098V14.3158H22.5141C21.5881 14.3158 21.5724 14.3158 21.4943 14.4017Z" fill="#972CF1"/>
<path d="M11.3392 16.1098C11.0695 16.1918 10.8312 16.395 10.6905 16.6607C10.6202 16.7935 10.6163 17.0163 10.6046 22.1896C10.5928 28.1171 10.5811 27.7732 10.8312 28.078C10.8976 28.1562 11.05 28.2695 11.175 28.332L11.3978 28.4414L15.6881 28.4531C18.1184 28.457 19.9744 28.4492 19.9744 28.4297C19.9744 28.3672 19.7439 28.0741 19.654 28.0233C19.5837 27.9842 18.8061 27.9686 15.8912 27.953C13.8555 27.9413 12.1831 27.9178 12.1402 27.8983C11.9565 27.8162 11.7924 27.656 11.7064 27.4685L11.6127 27.2692V21.6699V16.0746L11.5267 16.0785C11.4759 16.0785 11.3939 16.0941 11.3392 16.1098Z" fill="#972CF1"/>
<path d="M29.6264 21.6348C29.6264 27.7811 29.642 27.3981 29.3802 27.6756C29.3099 27.7459 29.1849 27.8397 29.0989 27.8787C28.9504 27.9491 28.7668 27.953 25.3244 27.953H21.7062L21.5733 28.0429C21.4483 28.1249 21.2646 28.3554 21.2646 28.4297C21.2646 28.4492 23.1011 28.457 25.5354 28.4531L29.8022 28.4414L30.025 28.332C30.15 28.2695 30.3024 28.1562 30.3688 28.078C30.6189 27.7732 30.6072 28.1171 30.5954 22.1896L30.5837 16.7975L30.4978 16.6412C30.3454 16.3559 30.0679 16.1488 29.771 16.0941L29.6264 16.0668V21.6348Z" fill="#972CF1"/>
<path d="M24.3525 22.1541C24.3525 22.1658 24.4854 22.4315 24.6495 22.7441L24.9504 23.3107L25.0832 23.0645C25.1575 22.9277 25.2942 22.662 25.3919 22.4706L25.5638 22.1306H24.9582C24.6261 22.1306 24.3525 22.1424 24.3525 22.1541Z" fill="#972CF1"/>
</svg>
