<svg width="40" height="40" viewBox="0 0 40 40" fill="none" xmlns="http://www.w3.org/2000/svg">
<rect width="40" height="40" rx="20" fill="#D6F5F3"/>
<path d="M19.91 22H27.753C28.3498 22 28.9221 22.2371 29.344 22.659C29.766 23.081 30.003 23.6533 30.003 24.25V25.155C30.003 25.6954 29.8862 26.2294 29.6607 26.7204C29.4351 27.2115 29.106 27.648 28.696 28C27.13 29.345 24.89 30.002 22 30.002H21.821C21.9717 29.6983 22.031 29.3575 21.9918 29.0207C21.9525 28.684 21.8165 28.3659 21.6 28.105L21.489 27.984L19.259 25.76C19.919 24.625 20.1506 23.2907 19.91 22ZM14.5 18.5C15.3549 18.5 16.1921 18.7436 16.9136 19.2021C17.635 19.6606 18.211 20.3152 18.574 21.0891C18.937 21.8631 19.072 22.7244 18.9633 23.5724C18.8546 24.4203 18.5066 25.2197 17.96 25.877L20.783 28.691C20.9163 28.8248 20.9942 29.004 21.0011 29.1928C21.008 29.3816 20.9435 29.566 20.8203 29.7092C20.6972 29.8524 20.5245 29.9439 20.3369 29.9654C20.1492 29.9869 19.9604 29.9367 19.808 29.825L19.723 29.753L16.82 26.857C16.2256 27.2143 15.5567 27.4293 14.8655 27.4853C14.1742 27.5413 13.4794 27.4368 12.8352 27.18C12.1911 26.9231 11.615 26.5208 11.1519 26.0045C10.6889 25.4883 10.3514 24.872 10.1659 24.2037C9.98043 23.5355 9.95188 22.8334 10.0825 22.1524C10.2131 21.4713 10.4994 20.8296 10.919 20.2774C11.3386 19.7252 11.8801 19.2775 12.5013 18.9692C13.1225 18.6609 13.8065 18.5003 14.5 18.5ZM14.5 20C13.7044 20 12.9413 20.3161 12.3787 20.8787C11.8161 21.4413 11.5 22.2044 11.5 23C11.5 23.7957 11.8161 24.5587 12.3787 25.1213C12.9413 25.6839 13.7044 26 14.5 26C15.2957 26 16.0588 25.6839 16.6214 25.1213C17.184 24.5587 17.5 23.7957 17.5 23C17.5 22.2044 17.184 21.4413 16.6214 20.8787C16.0588 20.3161 15.2957 20 14.5 20ZM22 10.005C22.6567 10.005 23.3068 10.1343 23.9135 10.3856C24.5201 10.6369 25.0713 11.0052 25.5356 11.4695C25.9999 11.9338 26.3682 12.485 26.6194 13.0916C26.8707 13.6982 27 14.3484 27 15.005C27 15.6616 26.8707 16.3118 26.6194 16.9184C26.3682 17.525 25.9999 18.0762 25.5356 18.5405C25.0713 19.0048 24.5201 19.3731 23.9135 19.6244C23.3068 19.8757 22.6567 20.005 22 20.005C20.674 20.005 19.4022 19.4782 18.4645 18.5405C17.5268 17.6029 17 16.3311 17 15.005C17 13.6789 17.5268 12.4072 18.4645 11.4695C19.4022 10.5318 20.674 10.005 22 10.005Z" fill="#24948C"/>
</svg>
