<svg xmlns="http://www.w3.org/2000/svg" xmlns:xlink="http://www.w3.org/1999/xlink" width="500" zoomAndPan="magnify" viewBox="0 0 375 374.999991" height="500" preserveAspectRatio="xMidYMid meet" version="1.0"><defs><g></g><clipPath id="09fa62e142"><path d="M 158 165 L 259.5 165 L 259.5 227 L 158 227 Z M 158 165 " clip-rule="nonzero" data-index="0"></path></clipPath><clipPath id="bc2d595454"><path d="M 115.5 83.761719 L 249 83.761719 L 249 233.761719 L 115.5 233.761719 Z M 115.5 83.761719 " clip-rule="nonzero" data-index="1"></path></clipPath></defs><rect x="-37.5" width="450" fill="#ffffff" y="-37.499999" height="449.999989" fill-opacity="1"></rect><rect x="-37.5" width="450" fill="#ffffff" y="-37.499999" height="449.999989" fill-opacity="1"></rect><g clip-path="url(#09fa62e142)"><path fill="#693d14" d="M 232.078125 201.554688 C 236.582031 193.679688 239.152344 184.5625 239.152344 174.84375 C 239.152344 171.632812 238.871094 168.484375 238.332031 165.429688 C 236.152344 177.554688 229.707031 188.199219 220.601562 195.746094 C 215.332031 200.117188 207.492188 199.230469 203.367188 193.765625 L 195.675781 183.570312 C 194.394531 181.875 192.394531 180.878906 190.269531 180.878906 L 160.953125 180.878906 C 160.945312 180.878906 160.9375 180.878906 160.933594 180.878906 C 158.929688 180.894531 157.636719 183.003906 158.535156 184.796875 L 159.703125 187.121094 C 161.871094 191.441406 166.140625 194.3125 170.960938 194.691406 L 172.699219 194.828125 L 180.300781 195.429688 C 182.453125 195.597656 184.394531 196.789062 185.519531 198.628906 L 188.96875 204.269531 L 190.898438 207.425781 L 201.714844 225.117188 C 201.90625 225.433594 202.148438 225.707031 202.421875 225.9375 C 203.214844 226.601562 204.289062 226.878906 205.328125 226.621094 C 205.335938 226.617188 205.34375 226.617188 205.351562 226.613281 C 233.40625 219.691406 255.015625 196.421875 259.503906 167.488281 C 255.566406 182.332031 245.449219 194.660156 232.078125 201.554688 " fill-opacity="1" fill-rule="nonzero" data-index="2"></path></g><g clip-path="url(#bc2d595454)"><path fill="#ad8330" d="M 183.449219 199.894531 C 182.730469 198.71875 181.484375 197.953125 180.109375 197.84375 L 170.769531 197.109375 C 165.140625 196.667969 160.070312 193.257812 157.535156 188.207031 L 156.429688 186.007812 C 155.644531 184.441406 155.625 182.570312 156.492188 181.050781 C 157.386719 179.480469 159 178.511719 160.789062 178.457031 L 160.953125 178.453125 L 170.339844 178.453125 C 167.277344 173.625 161.761719 170.90625 156.054688 171.441406 L 146.300781 172.351562 C 142.125 172.742188 138.371094 169.863281 137.601562 165.738281 C 137.03125 162.679688 136.730469 159.527344 136.730469 156.304688 C 136.730469 139.960938 144.386719 125.410156 156.300781 116.03125 C 144.496094 123.808594 135.308594 135.234375 130.351562 148.703125 C 134.816406 116.25 162.65625 91.253906 196.335938 91.253906 C 217.1875 91.253906 235.796875 100.832031 248.011719 115.828125 C 235.027344 96.605469 213.0625 83.945312 188.136719 83.878906 C 148.234375 83.777344 115.578125 116.289062 115.519531 156.195312 C 115.5 170.242188 119.480469 183.355469 126.382812 194.464844 C 126.53125 194.699219 126.671875 194.933594 126.820312 195.167969 L 136.488281 193.527344 C 140.808594 192.796875 144.363281 196.972656 142.894531 201.097656 C 142.851562 201.210938 142.828125 201.273438 142.828125 201.273438 C 149.050781 203.539062 148 209.601562 148 209.601562 C 153.496094 212.105469 151.234375 217.28125 151.234375 217.28125 C 153.175781 218.082031 153.859375 219.65625 154.035156 220.167969 C 154.125 220.429688 154.222656 220.6875 154.324219 220.949219 L 158.082031 230.59375 C 158.730469 232.253906 160.714844 233.609375 162.496094 233.609375 C 164.742188 233.609375 166.296875 231.363281 165.503906 229.261719 L 163.746094 224.578125 L 161.398438 218.332031 C 161.234375 217.898438 161.535156 217.417969 162.007812 217.382812 C 162.320312 217.359375 162.601562 217.5625 162.722656 217.851562 L 165.804688 225.277344 L 168.089844 230.769531 C 168.875 232.664062 170.949219 233.75 172.914062 233.175781 C 175.273438 232.484375 176.445312 229.847656 175.378906 227.636719 C 175.378906 227.636719 175.378906 227.632812 175.378906 227.632812 L 169.730469 215.96875 C 169.488281 215.46875 169.820312 214.878906 170.375 214.824219 C 170.695312 214.792969 171 214.960938 171.152344 215.242188 L 178.023438 228.046875 L 178.875 229.636719 C 179.714844 231.199219 181.554688 232.015625 183.242188 231.457031 C 184.554688 231.023438 185.429688 229.925781 185.660156 228.6875 C 185.800781 227.929688 185.703125 227.121094 185.320312 226.375 L 179.941406 215.953125 C 179.707031 215.496094 179.878906 214.90625 180.355469 214.710938 C 180.777344 214.535156 181.25 214.714844 181.457031 215.105469 L 187.535156 226.585938 C 188.027344 227.511719 188.757812 228.230469 189.613281 228.707031 C 191.039062 229.496094 192.804688 229.609375 194.382812 228.863281 C 194.683594 228.722656 194.964844 228.550781 195.222656 228.359375 C 197.378906 226.796875 198.054688 223.785156 196.609375 221.417969 L 183.449219 199.894531 " fill-opacity="1" fill-rule="nonzero" data-index="3"></path></g><path fill="#693d14" d="M 130.914062 204.25 L 138.519531 202.988281 C 140.800781 202.609375 142.34375 200.453125 141.964844 198.167969 C 141.585938 195.886719 139.429688 194.34375 137.148438 194.722656 L 129.542969 195.984375 C 127.261719 196.363281 125.71875 198.519531 126.097656 200.800781 C 126.476562 203.082031 128.632812 204.625 130.914062 204.25 " fill-opacity="1" fill-rule="nonzero" data-index="4"></path><path fill="#693d14" d="M 145.84375 206.414062 C 145.464844 204.132812 143.308594 202.589844 141.027344 202.96875 L 130.648438 204.953125 C 128.367188 205.332031 126.824219 207.488281 127.203125 209.769531 C 127.578125 212.050781 129.738281 213.59375 132.019531 213.214844 L 142.398438 211.230469 C 144.679688 210.851562 146.222656 208.695312 145.84375 206.414062 " fill-opacity="1" fill-rule="nonzero" data-index="5"></path><path fill="#693d14" d="M 149.347656 215.035156 C 148.96875 212.753906 146.8125 211.210938 144.53125 211.589844 L 136.925781 212.851562 C 134.644531 213.230469 133.101562 215.386719 133.480469 217.667969 C 133.859375 219.949219 136.015625 221.492188 138.296875 221.113281 L 145.898438 219.851562 C 148.183594 219.472656 149.726562 217.316406 149.347656 215.035156 " fill-opacity="1" fill-rule="nonzero" data-index="6"></path><path fill="#693d14" d="M 149.808594 219.671875 L 143.566406 220.667969 C 141.285156 221.042969 139.742188 223.203125 140.121094 225.484375 C 140.496094 227.765625 142.65625 229.308594 144.9375 228.929688 L 151.179688 227.9375 C 153.464844 227.558594 155.007812 225.398438 154.628906 223.117188 C 154.25 220.835938 152.09375 219.292969 149.808594 219.671875 " fill-opacity="1" fill-rule="nonzero" data-index="7"></path><g fill="#693d14" fill-opacity="1"><g transform="translate(120.811467, 273.975303)"><g><path d="M 16.109375 -6.375 L 19.015625 -0.71875 C 19.117188 -0.507812 19.128906 -0.332031 19.046875 -0.1875 C 18.972656 -0.0507812 18.820312 0.015625 18.59375 0.015625 L 15.46875 0.015625 C 15.34375 0.015625 15.207031 -0.03125 15.0625 -0.125 C 14.925781 -0.226562 14.820312 -0.359375 14.75 -0.515625 L 12.515625 -5.078125 C 12.285156 -5.046875 12.046875 -5.019531 11.796875 -5 C 11.546875 -4.988281 11.296875 -4.984375 11.046875 -4.984375 L 6.59375 -4.984375 L 6.59375 -0.609375 C 6.59375 -0.421875 6.53125 -0.269531 6.40625 -0.15625 C 6.28125 -0.0390625 6.125 0.015625 5.9375 0.015625 L 3.203125 0.015625 C 3.023438 0.015625 2.875 -0.0390625 2.75 -0.15625 C 2.625 -0.269531 2.5625 -0.421875 2.5625 -0.609375 L 2.5625 -20.953125 C 2.5625 -21.128906 2.625 -21.273438 2.75 -21.390625 C 2.875 -21.503906 3.023438 -21.5625 3.203125 -21.5625 L 3.921875 -21.5625 C 4.335938 -21.5625 4.742188 -21.5625 5.140625 -21.5625 C 5.546875 -21.5625 5.832031 -21.5625 6 -21.5625 L 11.046875 -21.5625 C 12.316406 -21.5625 13.476562 -21.351562 14.53125 -20.9375 C 15.59375 -20.53125 16.515625 -19.953125 17.296875 -19.203125 C 18.078125 -18.460938 18.679688 -17.578125 19.109375 -16.546875 C 19.546875 -15.523438 19.765625 -14.410156 19.765625 -13.203125 C 19.765625 -11.734375 19.4375 -10.410156 18.78125 -9.234375 C 18.125 -8.054688 17.234375 -7.101562 16.109375 -6.375 Z M 10.796875 -8.328125 C 11.753906 -8.328125 12.609375 -8.535156 13.359375 -8.953125 C 14.109375 -9.367188 14.695312 -9.945312 15.125 -10.6875 C 15.550781 -11.425781 15.765625 -12.273438 15.765625 -13.234375 C 15.765625 -13.929688 15.632812 -14.570312 15.375 -15.15625 C 15.125 -15.75 14.773438 -16.257812 14.328125 -16.6875 C 13.890625 -17.125 13.367188 -17.460938 12.765625 -17.703125 C 12.160156 -17.941406 11.503906 -18.0625 10.796875 -18.0625 L 6.59375 -18.0625 L 6.59375 -8.328125 Z M 10.796875 -8.328125 " data-index="8"></path></g></g></g><g fill="#693d14" fill-opacity="1"><g transform="translate(145.255492, 273.975303)"><g><path d="M 30.96875 -21.5625 C 31.207031 -21.5625 31.363281 -21.492188 31.4375 -21.359375 C 31.519531 -21.234375 31.515625 -21.066406 31.421875 -20.859375 L 22.15625 -0.34375 C 21.945312 0.101562 21.671875 0.328125 21.328125 0.328125 L 21.265625 0.328125 C 20.910156 0.328125 20.628906 0.101562 20.421875 -0.34375 L 16.03125 -9.859375 L 11.734375 -0.34375 C 11.523438 0.101562 11.25 0.328125 10.90625 0.328125 L 10.84375 0.328125 C 10.46875 0.328125 10.1875 0.101562 10 -0.34375 L 0.75 -20.84375 C 0.65625 -21.0625 0.648438 -21.234375 0.734375 -21.359375 C 0.828125 -21.492188 0.992188 -21.5625 1.234375 -21.5625 L 4.265625 -21.5625 C 4.453125 -21.5625 4.601562 -21.507812 4.71875 -21.40625 C 4.84375 -21.300781 4.941406 -21.175781 5.015625 -21.03125 L 10.890625 -7.40625 L 16.75 -21.03125 C 16.832031 -21.1875 16.929688 -21.3125 17.046875 -21.40625 C 17.171875 -21.507812 17.316406 -21.5625 17.484375 -21.5625 L 20.546875 -21.5625 C 20.785156 -21.5625 20.941406 -21.492188 21.015625 -21.359375 C 21.097656 -21.234375 21.09375 -21.066406 21 -20.859375 L 18.125 -14.515625 L 21.296875 -6.890625 L 27.171875 -21.03125 C 27.242188 -21.1875 27.34375 -21.3125 27.46875 -21.40625 C 27.59375 -21.507812 27.738281 -21.5625 27.90625 -21.5625 Z M 30.96875 -21.5625 " data-index="9"></path></g></g></g><g fill="#693d14" fill-opacity="1"><g transform="translate(180.332727, 273.975303)"><g><path d="M 18.1875 -3.8125 C 18.445312 -3.8125 18.65625 -3.738281 18.8125 -3.59375 C 18.96875 -3.445312 19.046875 -3.253906 19.046875 -3.015625 L 19.046875 -0.625 C 19.046875 -0.4375 18.988281 -0.285156 18.875 -0.171875 C 18.757812 -0.0546875 18.601562 0 18.40625 0 L 3.203125 0 C 2.773438 0 2.5625 -0.207031 2.5625 -0.625 L 2.5625 -20.921875 C 2.5625 -21.347656 2.773438 -21.5625 3.203125 -21.5625 L 18.109375 -21.5625 C 18.316406 -21.5625 18.472656 -21.503906 18.578125 -21.390625 C 18.691406 -21.273438 18.75 -21.125 18.75 -20.9375 L 18.75 -18.421875 C 18.75 -17.984375 18.535156 -17.765625 18.109375 -17.765625 L 6.59375 -17.765625 L 6.59375 -11.8125 L 15.609375 -11.8125 C 15.835938 -11.8125 16.019531 -11.753906 16.15625 -11.640625 C 16.289062 -11.523438 16.359375 -11.359375 16.359375 -11.140625 L 16.359375 -8.78125 C 16.359375 -8.582031 16.289062 -8.425781 16.15625 -8.3125 C 16.019531 -8.195312 15.835938 -8.140625 15.609375 -8.140625 L 6.59375 -8.140625 L 6.59375 -3.8125 Z M 18.1875 -3.8125 " data-index="10"></path></g></g></g><g fill="#693d14" fill-opacity="1"><g transform="translate(203.740399, 273.975303)"><g><path d="M 25.6875 -0.640625 C 25.707031 -0.410156 25.660156 -0.242188 25.546875 -0.140625 C 25.429688 -0.0351562 25.269531 0.015625 25.0625 0.015625 L 22.3125 0.015625 C 22.101562 0.015625 21.945312 -0.03125 21.84375 -0.125 C 21.738281 -0.21875 21.675781 -0.375 21.65625 -0.59375 L 20.625 -11.125 L 14.234375 -0.25 C 14.109375 -0.0507812 14 0.0859375 13.90625 0.171875 C 13.820312 0.265625 13.695312 0.3125 13.53125 0.3125 L 13.515625 0.3125 C 13.335938 0.3125 13.207031 0.265625 13.125 0.171875 C 13.039062 0.0859375 12.9375 -0.0507812 12.8125 -0.25 L 6.421875 -11.125 L 5.375 -0.59375 C 5.351562 -0.375 5.289062 -0.21875 5.1875 -0.125 C 5.082031 -0.03125 4.929688 0.015625 4.734375 0.015625 L 1.96875 0.015625 C 1.757812 0.015625 1.597656 -0.0351562 1.484375 -0.140625 C 1.367188 -0.242188 1.320312 -0.410156 1.34375 -0.640625 L 3.4375 -21.375 C 3.46875 -21.71875 3.644531 -21.890625 3.96875 -21.890625 L 4.046875 -21.890625 C 4.222656 -21.890625 4.34375 -21.84375 4.40625 -21.75 C 4.476562 -21.664062 4.5625 -21.546875 4.65625 -21.390625 L 13.515625 -6.359375 L 22.375 -21.390625 C 22.46875 -21.546875 22.546875 -21.664062 22.609375 -21.75 C 22.679688 -21.84375 22.804688 -21.890625 22.984375 -21.890625 L 23.046875 -21.890625 C 23.367188 -21.890625 23.550781 -21.71875 23.59375 -21.375 Z M 25.6875 -0.640625 " data-index="11"></path></g></g></g><g fill="#693d14" fill-opacity="1"><g transform="translate(233.664292, 273.975303)"><g><path d="M 18.1875 -3.8125 C 18.445312 -3.8125 18.65625 -3.738281 18.8125 -3.59375 C 18.96875 -3.445312 19.046875 -3.253906 19.046875 -3.015625 L 19.046875 -0.625 C 19.046875 -0.4375 18.988281 -0.285156 18.875 -0.171875 C 18.757812 -0.0546875 18.601562 0 18.40625 0 L 3.203125 0 C 2.773438 0 2.5625 -0.207031 2.5625 -0.625 L 2.5625 -20.921875 C 2.5625 -21.347656 2.773438 -21.5625 3.203125 -21.5625 L 18.109375 -21.5625 C 18.316406 -21.5625 18.472656 -21.503906 18.578125 -21.390625 C 18.691406 -21.273438 18.75 -21.125 18.75 -20.9375 L 18.75 -18.421875 C 18.75 -17.984375 18.535156 -17.765625 18.109375 -17.765625 L 6.59375 -17.765625 L 6.59375 -11.8125 L 15.609375 -11.8125 C 15.835938 -11.8125 16.019531 -11.753906 16.15625 -11.640625 C 16.289062 -11.523438 16.359375 -11.359375 16.359375 -11.140625 L 16.359375 -8.78125 C 16.359375 -8.582031 16.289062 -8.425781 16.15625 -8.3125 C 16.019531 -8.195312 15.835938 -8.140625 15.609375 -8.140625 L 6.59375 -8.140625 L 6.59375 -3.8125 Z M 18.1875 -3.8125 " data-index="12"></path></g></g></g><g fill="#000000" fill-opacity="1"><g transform="translate(92.757348, 289.439097)"><g><path d="M 4.953125 -6.171875 C 5.078125 -6.171875 5.140625 -6.109375 5.140625 -5.984375 L 5.140625 -5.265625 C 5.140625 -5.140625 5.078125 -5.078125 4.953125 -5.078125 L 1.890625 -5.078125 L 1.890625 -3.03125 L 4.34375 -3.03125 C 4.40625 -3.03125 4.453125 -3.015625 4.484375 -2.984375 C 4.523438 -2.953125 4.546875 -2.90625 4.546875 -2.84375 L 4.546875 -2.171875 C 4.546875 -2.109375 4.523438 -2.0625 4.484375 -2.03125 C 4.453125 -2 4.40625 -1.984375 4.34375 -1.984375 L 1.890625 -1.984375 L 1.890625 -0.171875 C 1.890625 -0.0546875 1.828125 0 1.703125 0 L 0.921875 0 C 0.796875 0 0.734375 -0.0546875 0.734375 -0.171875 L 0.734375 -5.984375 C 0.734375 -6.109375 0.796875 -6.171875 0.921875 -6.171875 Z M 4.953125 -6.171875 " data-index="13"></path></g></g></g><g fill="#000000" fill-opacity="1"><g transform="translate(104.860204, 289.439097)"><g><path d="M 5.96875 -0.203125 C 6 -0.140625 6 -0.0859375 5.96875 -0.046875 C 5.945312 -0.00390625 5.90625 0.015625 5.84375 0.015625 L 4.96875 0.015625 C 4.914062 0.015625 4.867188 0 4.828125 -0.03125 C 4.796875 -0.0625 4.769531 -0.101562 4.75 -0.15625 L 4.515625 -0.75 L 1.671875 -0.75 L 1.421875 -0.15625 C 1.410156 -0.113281 1.382812 -0.078125 1.34375 -0.046875 C 1.3125 -0.015625 1.269531 0 1.21875 0 L 0.34375 0 C 0.28125 0 0.234375 -0.015625 0.203125 -0.046875 C 0.179688 -0.0859375 0.1875 -0.140625 0.21875 -0.203125 L 2.84375 -6.09375 C 2.863281 -6.132812 2.894531 -6.171875 2.9375 -6.203125 C 2.976562 -6.234375 3.019531 -6.25 3.0625 -6.25 L 3.109375 -6.25 C 3.160156 -6.25 3.203125 -6.234375 3.234375 -6.203125 C 3.273438 -6.171875 3.3125 -6.128906 3.34375 -6.078125 Z M 2.078125 -1.734375 L 4.109375 -1.734375 L 3.09375 -4.1875 Z M 2.078125 -1.734375 " data-index="14"></path></g></g></g><g fill="#000000" fill-opacity="1"><g transform="translate(117.685159, 289.439097)"><g><path d="M 4.609375 -1.828125 L 5.4375 -0.203125 C 5.46875 -0.148438 5.472656 -0.101562 5.453125 -0.0625 C 5.429688 -0.0195312 5.382812 0 5.3125 0 L 4.421875 0 C 4.390625 0 4.351562 -0.0078125 4.3125 -0.03125 C 4.269531 -0.0625 4.238281 -0.0976562 4.21875 -0.140625 L 3.578125 -1.453125 C 3.515625 -1.441406 3.445312 -1.429688 3.375 -1.421875 C 3.300781 -1.421875 3.226562 -1.421875 3.15625 -1.421875 L 1.890625 -1.421875 L 1.890625 -0.171875 C 1.890625 -0.117188 1.867188 -0.078125 1.828125 -0.046875 C 1.796875 -0.015625 1.753906 0 1.703125 0 L 0.921875 0 C 0.867188 0 0.820312 -0.015625 0.78125 -0.046875 C 0.75 -0.078125 0.734375 -0.117188 0.734375 -0.171875 L 0.734375 -5.984375 C 0.734375 -6.035156 0.75 -6.078125 0.78125 -6.109375 C 0.820312 -6.148438 0.867188 -6.171875 0.921875 -6.171875 L 1.125 -6.171875 C 1.238281 -6.171875 1.351562 -6.171875 1.46875 -6.171875 C 1.582031 -6.171875 1.664062 -6.171875 1.71875 -6.171875 L 3.15625 -6.171875 C 3.519531 -6.171875 3.851562 -6.109375 4.15625 -5.984375 C 4.457031 -5.867188 4.71875 -5.703125 4.9375 -5.484375 C 5.164062 -5.273438 5.34375 -5.023438 5.46875 -4.734375 C 5.59375 -4.441406 5.65625 -4.125 5.65625 -3.78125 C 5.65625 -3.351562 5.5625 -2.972656 5.375 -2.640625 C 5.1875 -2.304688 4.929688 -2.035156 4.609375 -1.828125 Z M 3.078125 -2.375 C 3.359375 -2.375 3.601562 -2.429688 3.8125 -2.546875 C 4.03125 -2.671875 4.195312 -2.835938 4.3125 -3.046875 C 4.4375 -3.265625 4.5 -3.507812 4.5 -3.78125 C 4.5 -3.976562 4.460938 -4.160156 4.390625 -4.328125 C 4.328125 -4.503906 4.226562 -4.648438 4.09375 -4.765625 C 3.96875 -4.890625 3.816406 -4.984375 3.640625 -5.046875 C 3.472656 -5.117188 3.285156 -5.15625 3.078125 -5.15625 L 1.890625 -5.15625 L 1.890625 -2.375 Z M 3.078125 -2.375 " data-index="15"></path></g></g></g><g fill="#000000" fill-opacity="1"><g transform="translate(130.485774, 289.439097)"><g><path d="M 7.34375 -0.1875 C 7.34375 -0.113281 7.328125 -0.0625 7.296875 -0.03125 C 7.265625 -0.0078125 7.21875 0 7.15625 0 L 6.375 0 C 6.320312 0 6.28125 -0.0078125 6.25 -0.03125 C 6.21875 -0.0625 6.195312 -0.109375 6.1875 -0.171875 L 5.890625 -3.1875 L 4.0625 -0.078125 C 4.03125 -0.015625 4 0.0234375 3.96875 0.046875 C 3.945312 0.078125 3.914062 0.09375 3.875 0.09375 L 3.859375 0.09375 C 3.804688 0.09375 3.769531 0.078125 3.75 0.046875 C 3.726562 0.0234375 3.695312 -0.015625 3.65625 -0.078125 L 1.828125 -3.171875 L 1.53125 -0.171875 C 1.53125 -0.109375 1.515625 -0.0625 1.484375 -0.03125 C 1.453125 -0.0078125 1.410156 0 1.359375 0 L 0.5625 0 C 0.5 0 0.453125 -0.0078125 0.421875 -0.03125 C 0.390625 -0.0625 0.378906 -0.113281 0.390625 -0.1875 L 0.984375 -6.109375 C 0.992188 -6.210938 1.046875 -6.265625 1.140625 -6.265625 L 1.15625 -6.265625 C 1.207031 -6.265625 1.242188 -6.25 1.265625 -6.21875 C 1.285156 -6.195312 1.304688 -6.160156 1.328125 -6.109375 L 3.859375 -1.8125 L 6.390625 -6.109375 C 6.421875 -6.160156 6.445312 -6.195312 6.46875 -6.21875 C 6.488281 -6.25 6.523438 -6.265625 6.578125 -6.265625 L 6.59375 -6.265625 C 6.675781 -6.265625 6.726562 -6.210938 6.75 -6.109375 Z M 7.34375 -0.1875 " data-index="16"></path></g></g></g><g fill="#000000" fill-opacity="1"><g transform="translate(144.852286, 289.439097)"><g><path d="M 5.203125 -1.09375 C 5.273438 -1.09375 5.332031 -1.070312 5.375 -1.03125 C 5.425781 -0.988281 5.453125 -0.929688 5.453125 -0.859375 L 5.453125 -0.171875 C 5.453125 -0.117188 5.429688 -0.078125 5.390625 -0.046875 C 5.359375 -0.015625 5.316406 0 5.265625 0 L 0.921875 0 C 0.796875 0 0.734375 -0.0546875 0.734375 -0.171875 L 0.734375 -5.984375 C 0.734375 -6.109375 0.796875 -6.171875 0.921875 -6.171875 L 5.171875 -6.171875 C 5.234375 -6.171875 5.28125 -6.148438 5.3125 -6.109375 C 5.34375 -6.078125 5.359375 -6.035156 5.359375 -5.984375 L 5.359375 -5.265625 C 5.359375 -5.140625 5.296875 -5.078125 5.171875 -5.078125 L 1.890625 -5.078125 L 1.890625 -3.375 L 4.453125 -3.375 C 4.523438 -3.375 4.578125 -3.359375 4.609375 -3.328125 C 4.648438 -3.296875 4.671875 -3.25 4.671875 -3.1875 L 4.671875 -2.515625 C 4.671875 -2.453125 4.648438 -2.40625 4.609375 -2.375 C 4.578125 -2.34375 4.523438 -2.328125 4.453125 -2.328125 L 1.890625 -2.328125 L 1.890625 -1.09375 Z M 5.203125 -1.09375 " data-index="17"></path></g></g></g><g fill="#000000" fill-opacity="1"><g transform="translate(157.356758, 289.439097)"><g><path d="M 4.609375 -1.828125 L 5.4375 -0.203125 C 5.46875 -0.148438 5.472656 -0.101562 5.453125 -0.0625 C 5.429688 -0.0195312 5.382812 0 5.3125 0 L 4.421875 0 C 4.390625 0 4.351562 -0.0078125 4.3125 -0.03125 C 4.269531 -0.0625 4.238281 -0.0976562 4.21875 -0.140625 L 3.578125 -1.453125 C 3.515625 -1.441406 3.445312 -1.429688 3.375 -1.421875 C 3.300781 -1.421875 3.226562 -1.421875 3.15625 -1.421875 L 1.890625 -1.421875 L 1.890625 -0.171875 C 1.890625 -0.117188 1.867188 -0.078125 1.828125 -0.046875 C 1.796875 -0.015625 1.753906 0 1.703125 0 L 0.921875 0 C 0.867188 0 0.820312 -0.015625 0.78125 -0.046875 C 0.75 -0.078125 0.734375 -0.117188 0.734375 -0.171875 L 0.734375 -5.984375 C 0.734375 -6.035156 0.75 -6.078125 0.78125 -6.109375 C 0.820312 -6.148438 0.867188 -6.171875 0.921875 -6.171875 L 1.125 -6.171875 C 1.238281 -6.171875 1.351562 -6.171875 1.46875 -6.171875 C 1.582031 -6.171875 1.664062 -6.171875 1.71875 -6.171875 L 3.15625 -6.171875 C 3.519531 -6.171875 3.851562 -6.109375 4.15625 -5.984375 C 4.457031 -5.867188 4.71875 -5.703125 4.9375 -5.484375 C 5.164062 -5.273438 5.34375 -5.023438 5.46875 -4.734375 C 5.59375 -4.441406 5.65625 -4.125 5.65625 -3.78125 C 5.65625 -3.351562 5.5625 -2.972656 5.375 -2.640625 C 5.1875 -2.304688 4.929688 -2.035156 4.609375 -1.828125 Z M 3.078125 -2.375 C 3.359375 -2.375 3.601562 -2.429688 3.8125 -2.546875 C 4.03125 -2.671875 4.195312 -2.835938 4.3125 -3.046875 C 4.4375 -3.265625 4.5 -3.507812 4.5 -3.78125 C 4.5 -3.976562 4.460938 -4.160156 4.390625 -4.328125 C 4.328125 -4.503906 4.226562 -4.648438 4.09375 -4.765625 C 3.96875 -4.890625 3.816406 -4.984375 3.640625 -5.046875 C 3.472656 -5.117188 3.285156 -5.15625 3.078125 -5.15625 L 1.890625 -5.15625 L 1.890625 -2.375 Z M 3.078125 -2.375 " data-index="18"></path></g></g></g><g fill="#000000" fill-opacity="1"><g transform="translate(170.15737, 289.439097)"><g><path d="M 0.484375 -5.734375 C 0.484375 -5.835938 0.503906 -5.929688 0.546875 -6.015625 C 0.597656 -6.097656 0.664062 -6.160156 0.75 -6.203125 C 0.84375 -6.253906 0.941406 -6.28125 1.046875 -6.28125 C 1.160156 -6.28125 1.257812 -6.25 1.34375 -6.1875 C 1.4375 -6.125 1.507812 -6.035156 1.5625 -5.921875 C 1.625 -5.804688 1.65625 -5.675781 1.65625 -5.53125 C 1.65625 -5.300781 1.625 -5.097656 1.5625 -4.921875 C 1.5 -4.742188 1.398438 -4.554688 1.265625 -4.359375 C 1.242188 -4.328125 1.210938 -4.304688 1.171875 -4.296875 C 1.128906 -4.285156 1.09375 -4.289062 1.0625 -4.3125 L 0.828125 -4.4375 C 0.796875 -4.457031 0.78125 -4.488281 0.78125 -4.53125 C 0.78125 -4.570312 0.789062 -4.613281 0.8125 -4.65625 C 0.875 -4.738281 0.929688 -4.828125 0.984375 -4.921875 C 1.035156 -5.023438 1.0625 -5.101562 1.0625 -5.15625 C 1.0625 -5.164062 1.054688 -5.175781 1.046875 -5.1875 C 1.046875 -5.207031 1.046875 -5.21875 1.046875 -5.21875 C 1.023438 -5.21875 1.003906 -5.210938 0.984375 -5.203125 C 0.972656 -5.203125 0.957031 -5.203125 0.9375 -5.203125 C 0.851562 -5.203125 0.773438 -5.222656 0.703125 -5.265625 C 0.640625 -5.316406 0.585938 -5.378906 0.546875 -5.453125 C 0.503906 -5.535156 0.484375 -5.628906 0.484375 -5.734375 Z M 0.484375 -5.734375 " data-index="19"></path></g></g></g><g fill="#000000" fill-opacity="1"><g transform="translate(178.941818, 289.439097)"><g><path d="M 2.78125 0.09375 C 2.550781 0.09375 2.320312 0.0664062 2.09375 0.015625 C 1.863281 -0.0234375 1.644531 -0.09375 1.4375 -0.1875 C 1.226562 -0.28125 1.035156 -0.390625 0.859375 -0.515625 C 0.691406 -0.640625 0.554688 -0.78125 0.453125 -0.9375 C 0.421875 -0.96875 0.40625 -1.003906 0.40625 -1.046875 C 0.414062 -1.097656 0.441406 -1.148438 0.484375 -1.203125 L 1.015625 -1.71875 C 1.054688 -1.757812 1.097656 -1.773438 1.140625 -1.765625 C 1.191406 -1.753906 1.238281 -1.726562 1.28125 -1.6875 C 1.40625 -1.5625 1.546875 -1.445312 1.703125 -1.34375 C 1.867188 -1.238281 2.039062 -1.15625 2.21875 -1.09375 C 2.394531 -1.03125 2.566406 -1 2.734375 -1 C 3.085938 -1 3.351562 -1.066406 3.53125 -1.203125 C 3.71875 -1.335938 3.8125 -1.523438 3.8125 -1.765625 C 3.8125 -1.910156 3.757812 -2.035156 3.65625 -2.140625 C 3.550781 -2.242188 3.40625 -2.335938 3.21875 -2.421875 C 3.03125 -2.503906 2.796875 -2.59375 2.515625 -2.6875 C 2.222656 -2.789062 1.960938 -2.894531 1.734375 -3 C 1.503906 -3.113281 1.304688 -3.238281 1.140625 -3.375 C 0.984375 -3.519531 0.863281 -3.679688 0.78125 -3.859375 C 0.707031 -4.046875 0.671875 -4.265625 0.671875 -4.515625 C 0.671875 -4.867188 0.753906 -5.175781 0.921875 -5.4375 C 1.097656 -5.695312 1.34375 -5.898438 1.65625 -6.046875 C 1.96875 -6.191406 2.335938 -6.265625 2.765625 -6.265625 C 3.003906 -6.265625 3.234375 -6.234375 3.453125 -6.171875 C 3.679688 -6.109375 3.882812 -6.023438 4.0625 -5.921875 C 4.25 -5.816406 4.40625 -5.695312 4.53125 -5.5625 C 4.570312 -5.507812 4.59375 -5.457031 4.59375 -5.40625 C 4.59375 -5.351562 4.570312 -5.304688 4.53125 -5.265625 L 4.109375 -4.765625 C 4.054688 -4.703125 4 -4.671875 3.9375 -4.671875 C 3.882812 -4.679688 3.828125 -4.707031 3.765625 -4.75 C 3.617188 -4.882812 3.453125 -4.988281 3.265625 -5.0625 C 3.078125 -5.132812 2.894531 -5.171875 2.71875 -5.171875 C 2.425781 -5.171875 2.195312 -5.109375 2.03125 -4.984375 C 1.875 -4.859375 1.796875 -4.703125 1.796875 -4.515625 C 1.796875 -4.359375 1.851562 -4.222656 1.96875 -4.109375 C 2.082031 -4.003906 2.238281 -3.90625 2.4375 -3.8125 C 2.632812 -3.726562 2.851562 -3.644531 3.09375 -3.5625 C 3.34375 -3.488281 3.578125 -3.398438 3.796875 -3.296875 C 4.023438 -3.203125 4.226562 -3.085938 4.40625 -2.953125 C 4.59375 -2.828125 4.738281 -2.664062 4.84375 -2.46875 C 4.945312 -2.28125 5 -2.050781 5 -1.78125 C 5 -1.488281 4.941406 -1.226562 4.828125 -1 C 4.722656 -0.769531 4.570312 -0.570312 4.375 -0.40625 C 4.175781 -0.238281 3.941406 -0.113281 3.671875 -0.03125 C 3.398438 0.0507812 3.101562 0.09375 2.78125 0.09375 Z M 2.78125 0.09375 " data-index="20"></path></g></g></g><g fill="#000000" fill-opacity="1"><g transform="translate(190.971657, 289.439097)"><g></g></g></g><g fill="#000000" fill-opacity="1"><g transform="translate(200.230748, 289.439097)"><g><path d="M 2.6875 -6.171875 C 3.082031 -6.171875 3.445312 -6.109375 3.78125 -5.984375 C 4.113281 -5.859375 4.398438 -5.6875 4.640625 -5.46875 C 4.890625 -5.25 5.078125 -4.988281 5.203125 -4.6875 C 5.335938 -4.394531 5.40625 -4.070312 5.40625 -3.71875 C 5.40625 -3.363281 5.335938 -3.035156 5.203125 -2.734375 C 5.078125 -2.441406 4.890625 -2.1875 4.640625 -1.96875 C 4.398438 -1.757812 4.113281 -1.59375 3.78125 -1.46875 C 3.445312 -1.351562 3.082031 -1.296875 2.6875 -1.296875 L 1.890625 -1.296875 L 1.890625 -0.171875 C 1.890625 -0.117188 1.867188 -0.078125 1.828125 -0.046875 C 1.796875 -0.015625 1.753906 0 1.703125 0 L 0.921875 0 C 0.859375 0 0.8125 -0.015625 0.78125 -0.046875 C 0.75 -0.078125 0.734375 -0.117188 0.734375 -0.171875 L 0.734375 -5.984375 C 0.734375 -6.035156 0.75 -6.078125 0.78125 -6.109375 C 0.820312 -6.148438 0.867188 -6.171875 0.921875 -6.171875 L 1.328125 -6.171875 C 1.421875 -6.171875 1.5 -6.171875 1.5625 -6.171875 C 1.632812 -6.171875 1.6875 -6.171875 1.71875 -6.171875 Z M 2.625 -2.3125 C 2.863281 -2.3125 3.082031 -2.34375 3.28125 -2.40625 C 3.476562 -2.476562 3.648438 -2.578125 3.796875 -2.703125 C 3.941406 -2.828125 4.054688 -2.972656 4.140625 -3.140625 C 4.222656 -3.316406 4.265625 -3.515625 4.265625 -3.734375 C 4.265625 -3.941406 4.222656 -4.128906 4.140625 -4.296875 C 4.054688 -4.472656 3.941406 -4.625 3.796875 -4.75 C 3.648438 -4.882812 3.476562 -4.984375 3.28125 -5.046875 C 3.082031 -5.117188 2.863281 -5.15625 2.625 -5.15625 L 1.890625 -5.15625 L 1.890625 -2.3125 Z M 2.625 -2.3125 " data-index="21"></path></g></g></g><g fill="#000000" fill-opacity="1"><g transform="translate(212.633806, 289.439097)"><g><path d="M 5.96875 -0.203125 C 6 -0.140625 6 -0.0859375 5.96875 -0.046875 C 5.945312 -0.00390625 5.90625 0.015625 5.84375 0.015625 L 4.96875 0.015625 C 4.914062 0.015625 4.867188 0 4.828125 -0.03125 C 4.796875 -0.0625 4.769531 -0.101562 4.75 -0.15625 L 4.515625 -0.75 L 1.671875 -0.75 L 1.421875 -0.15625 C 1.410156 -0.113281 1.382812 -0.078125 1.34375 -0.046875 C 1.3125 -0.015625 1.269531 0 1.21875 0 L 0.34375 0 C 0.28125 0 0.234375 -0.015625 0.203125 -0.046875 C 0.179688 -0.0859375 0.1875 -0.140625 0.21875 -0.203125 L 2.84375 -6.09375 C 2.863281 -6.132812 2.894531 -6.171875 2.9375 -6.203125 C 2.976562 -6.234375 3.019531 -6.25 3.0625 -6.25 L 3.109375 -6.25 C 3.160156 -6.25 3.203125 -6.234375 3.234375 -6.203125 C 3.273438 -6.171875 3.3125 -6.128906 3.34375 -6.078125 Z M 2.078125 -1.734375 L 4.109375 -1.734375 L 3.09375 -4.1875 Z M 2.078125 -1.734375 " data-index="22"></path></g></g></g><g fill="#000000" fill-opacity="1"><g transform="translate(225.458764, 289.439097)"><g><path d="M 4.609375 -1.828125 L 5.4375 -0.203125 C 5.46875 -0.148438 5.472656 -0.101562 5.453125 -0.0625 C 5.429688 -0.0195312 5.382812 0 5.3125 0 L 4.421875 0 C 4.390625 0 4.351562 -0.0078125 4.3125 -0.03125 C 4.269531 -0.0625 4.238281 -0.0976562 4.21875 -0.140625 L 3.578125 -1.453125 C 3.515625 -1.441406 3.445312 -1.429688 3.375 -1.421875 C 3.300781 -1.421875 3.226562 -1.421875 3.15625 -1.421875 L 1.890625 -1.421875 L 1.890625 -0.171875 C 1.890625 -0.117188 1.867188 -0.078125 1.828125 -0.046875 C 1.796875 -0.015625 1.753906 0 1.703125 0 L 0.921875 0 C 0.867188 0 0.820312 -0.015625 0.78125 -0.046875 C 0.75 -0.078125 0.734375 -0.117188 0.734375 -0.171875 L 0.734375 -5.984375 C 0.734375 -6.035156 0.75 -6.078125 0.78125 -6.109375 C 0.820312 -6.148438 0.867188 -6.171875 0.921875 -6.171875 L 1.125 -6.171875 C 1.238281 -6.171875 1.351562 -6.171875 1.46875 -6.171875 C 1.582031 -6.171875 1.664062 -6.171875 1.71875 -6.171875 L 3.15625 -6.171875 C 3.519531 -6.171875 3.851562 -6.109375 4.15625 -5.984375 C 4.457031 -5.867188 4.71875 -5.703125 4.9375 -5.484375 C 5.164062 -5.273438 5.34375 -5.023438 5.46875 -4.734375 C 5.59375 -4.441406 5.65625 -4.125 5.65625 -3.78125 C 5.65625 -3.351562 5.5625 -2.972656 5.375 -2.640625 C 5.1875 -2.304688 4.929688 -2.035156 4.609375 -1.828125 Z M 3.078125 -2.375 C 3.359375 -2.375 3.601562 -2.429688 3.8125 -2.546875 C 4.03125 -2.671875 4.195312 -2.835938 4.3125 -3.046875 C 4.4375 -3.265625 4.5 -3.507812 4.5 -3.78125 C 4.5 -3.976562 4.460938 -4.160156 4.390625 -4.328125 C 4.328125 -4.503906 4.226562 -4.648438 4.09375 -4.765625 C 3.96875 -4.890625 3.816406 -4.984375 3.640625 -5.046875 C 3.472656 -5.117188 3.285156 -5.15625 3.078125 -5.15625 L 1.890625 -5.15625 L 1.890625 -2.375 Z M 3.078125 -2.375 " data-index="23"></path></g></g></g><g fill="#000000" fill-opacity="1"><g transform="translate(238.259383, 289.439097)"><g><path d="M 0.234375 -5.34375 L 0.234375 -5.984375 C 0.234375 -6.109375 0.296875 -6.171875 0.421875 -6.171875 L 4.640625 -6.171875 C 4.691406 -6.171875 4.734375 -6.148438 4.765625 -6.109375 C 4.796875 -6.078125 4.8125 -6.035156 4.8125 -5.984375 L 4.8125 -5.34375 C 4.8125 -5.21875 4.753906 -5.15625 4.640625 -5.15625 L 3.09375 -5.15625 L 3.09375 -0.171875 C 3.09375 -0.0546875 3.035156 0 2.921875 0 L 2.125 0 C 2.007812 0 1.953125 -0.0546875 1.953125 -0.171875 L 1.953125 -5.15625 L 0.421875 -5.15625 C 0.367188 -5.15625 0.320312 -5.171875 0.28125 -5.203125 C 0.25 -5.234375 0.234375 -5.28125 0.234375 -5.34375 Z M 0.234375 -5.34375 " data-index="24"></path></g></g></g><g fill="#000000" fill-opacity="1"><g transform="translate(249.960626, 289.439097)"><g><path d="M 6.09375 -6.171875 C 6.175781 -6.171875 6.21875 -6.128906 6.21875 -6.046875 L 6.21875 -0.109375 C 6.21875 -0.046875 6.203125 0 6.171875 0.03125 C 6.148438 0.0625 6.113281 0.078125 6.0625 0.078125 C 6.007812 0.078125 5.960938 0.0625 5.921875 0.03125 C 5.890625 0 5.851562 -0.03125 5.8125 -0.0625 L 1.890625 -3.796875 L 1.890625 -0.125 C 1.890625 -0.0390625 1.84375 0 1.75 0 L 0.875 0 C 0.78125 0 0.734375 -0.0390625 0.734375 -0.125 L 0.734375 -6.0625 C 0.734375 -6.113281 0.742188 -6.15625 0.765625 -6.1875 C 0.796875 -6.226562 0.835938 -6.25 0.890625 -6.25 L 0.90625 -6.25 C 0.945312 -6.25 0.984375 -6.234375 1.015625 -6.203125 C 1.046875 -6.171875 1.082031 -6.132812 1.125 -6.09375 L 5.078125 -2.359375 L 5.078125 -6.046875 C 5.078125 -6.128906 5.125 -6.171875 5.21875 -6.171875 Z M 6.09375 -6.171875 " data-index="25"></path></g></g></g><g fill="#000000" fill-opacity="1"><g transform="translate(263.564477, 289.439097)"><g><path d="M 5.203125 -1.09375 C 5.273438 -1.09375 5.332031 -1.070312 5.375 -1.03125 C 5.425781 -0.988281 5.453125 -0.929688 5.453125 -0.859375 L 5.453125 -0.171875 C 5.453125 -0.117188 5.429688 -0.078125 5.390625 -0.046875 C 5.359375 -0.015625 5.316406 0 5.265625 0 L 0.921875 0 C 0.796875 0 0.734375 -0.0546875 0.734375 -0.171875 L 0.734375 -5.984375 C 0.734375 -6.109375 0.796875 -6.171875 0.921875 -6.171875 L 5.171875 -6.171875 C 5.234375 -6.171875 5.28125 -6.148438 5.3125 -6.109375 C 5.34375 -6.078125 5.359375 -6.035156 5.359375 -5.984375 L 5.359375 -5.265625 C 5.359375 -5.140625 5.296875 -5.078125 5.171875 -5.078125 L 1.890625 -5.078125 L 1.890625 -3.375 L 4.453125 -3.375 C 4.523438 -3.375 4.578125 -3.359375 4.609375 -3.328125 C 4.648438 -3.296875 4.671875 -3.25 4.671875 -3.1875 L 4.671875 -2.515625 C 4.671875 -2.453125 4.648438 -2.40625 4.609375 -2.375 C 4.578125 -2.34375 4.523438 -2.328125 4.453125 -2.328125 L 1.890625 -2.328125 L 1.890625 -1.09375 Z M 5.203125 -1.09375 " data-index="26"></path></g></g></g><g fill="#000000" fill-opacity="1"><g transform="translate(276.068943, 289.439097)"><g><path d="M 4.609375 -1.828125 L 5.4375 -0.203125 C 5.46875 -0.148438 5.472656 -0.101562 5.453125 -0.0625 C 5.429688 -0.0195312 5.382812 0 5.3125 0 L 4.421875 0 C 4.390625 0 4.351562 -0.0078125 4.3125 -0.03125 C 4.269531 -0.0625 4.238281 -0.0976562 4.21875 -0.140625 L 3.578125 -1.453125 C 3.515625 -1.441406 3.445312 -1.429688 3.375 -1.421875 C 3.300781 -1.421875 3.226562 -1.421875 3.15625 -1.421875 L 1.890625 -1.421875 L 1.890625 -0.171875 C 1.890625 -0.117188 1.867188 -0.078125 1.828125 -0.046875 C 1.796875 -0.015625 1.753906 0 1.703125 0 L 0.921875 0 C 0.867188 0 0.820312 -0.015625 0.78125 -0.046875 C 0.75 -0.078125 0.734375 -0.117188 0.734375 -0.171875 L 0.734375 -5.984375 C 0.734375 -6.035156 0.75 -6.078125 0.78125 -6.109375 C 0.820312 -6.148438 0.867188 -6.171875 0.921875 -6.171875 L 1.125 -6.171875 C 1.238281 -6.171875 1.351562 -6.171875 1.46875 -6.171875 C 1.582031 -6.171875 1.664062 -6.171875 1.71875 -6.171875 L 3.15625 -6.171875 C 3.519531 -6.171875 3.851562 -6.109375 4.15625 -5.984375 C 4.457031 -5.867188 4.71875 -5.703125 4.9375 -5.484375 C 5.164062 -5.273438 5.34375 -5.023438 5.46875 -4.734375 C 5.59375 -4.441406 5.65625 -4.125 5.65625 -3.78125 C 5.65625 -3.351562 5.5625 -2.972656 5.375 -2.640625 C 5.1875 -2.304688 4.929688 -2.035156 4.609375 -1.828125 Z M 3.078125 -2.375 C 3.359375 -2.375 3.601562 -2.429688 3.8125 -2.546875 C 4.03125 -2.671875 4.195312 -2.835938 4.3125 -3.046875 C 4.4375 -3.265625 4.5 -3.507812 4.5 -3.78125 C 4.5 -3.976562 4.460938 -4.160156 4.390625 -4.328125 C 4.328125 -4.503906 4.226562 -4.648438 4.09375 -4.765625 C 3.96875 -4.890625 3.816406 -4.984375 3.640625 -5.046875 C 3.472656 -5.117188 3.285156 -5.15625 3.078125 -5.15625 L 1.890625 -5.15625 L 1.890625 -2.375 Z M 3.078125 -2.375 " data-index="27"></path></g></g></g></svg>